<svg xmlns="http://www.w3.org/2000/svg" xmlns:xlink="http://www.w3.org/1999/xlink" xmlns:v="http://vecta.io" width="357" height="357" viewBox="0 0 357 357" ><style><![CDATA[svg{stroke:#000;stroke-linecap:round;stroke-linejoin:round;fill:#fff;fill-rule:evenodd;font-family:Roboto;font-size:14px;text-anchor:middle} svg text{stroke:none}]]></style><defs><linearGradient id="L010010000070135100612d50.grad" x1="0%" y1="100%" x2="100%" y2="0%"><stop offset="0%" stop-color="#070135"/><stop offset="100%" stop-color="#612d50"/></linearGradient></defs><g transform="translate(0.5 0.5)"><g ><g><path d="M 355 54.6154 C 355 21.8463 327.6925 0 294.9229 0 L 60.0771 0 C 27.3075 0 0 21.8463 0 54.6154 L 0 300.3846 C 0 333.1537 27.3075 355 60.0771 355 L 294.9229 355 C 327.6925 355 355 333.1537 355 300.3846 Z" fill="url(#L010010000070135100612d50.grad)" stroke="none"/></g><g transform="translate(84.6537 64.7192)"><path d="M 90.3533 87.3313 C 99.5194 87.3313 106.4694 85.3167 111.2038 81.2875 C 115.9381 77.2587 118.3051 71.3155 118.3051 63.4589 C 118.3051 55.7026 115.9381 49.81 111.2038 45.7808 C 106.4694 41.6513 99.5194 39.5865 90.3533 39.5861 L 58.1703 39.5861 L 58.1703 87.3313 L 90.3533 87.3313 M 92.3173 185.9947 C 104.0017 185.9947 112.7649 183.5266 118.6073 178.5912 C 124.55 173.6554 127.5218 166.2017 127.5218 156.2293 C 127.5218 146.4588 124.6006 139.156 118.7586 134.3209 C 112.9162 129.3855 104.1024 126.9174 92.3173 126.9174 L 58.1703 126.9174 L 58.1703 185.9947 L 92.3173 185.9947 M 146.4082 104.8581 C 158.8984 108.4845 168.5682 115.1829 175.4179 124.9533 C 182.2672 134.7238 185.6921 146.7104 185.6925 160.9131 C 185.6921 182.6706 178.3391 198.8879 163.6328 209.5649 C 148.9265 220.242 126.5646 225.5808 96.548 225.5808 L 0 225.5808 L 0 0 L 87.3313 0 C 118.6574 0 141.3215 4.7344 155.3227 14.2027 C 169.4246 23.6714 176.4754 38.8308 176.4758 59.6813 C 176.4754 70.661 173.907 80.0285 168.7701 87.7844 C 163.6328 95.44 156.1787 101.1311 146.4082 104.8581" stroke="none"/></g></g></g></svg>