<svg xmlns="http://www.w3.org/2000/svg" xmlns:xlink="http://www.w3.org/1999/xlink" xmlns:v="http://vecta.io" width="358" height="438" viewBox="0 0 358 438" ><style><![CDATA[svg{stroke:#000;stroke-linecap:round;stroke-linejoin:round;fill:#fff;fill-rule:evenodd;font-family:Roboto;font-size:14px;text-anchor:middle} svg text{stroke:none}]]></style><g transform="translate(0.5 0.5)"><g ><g transform="translate(0 81.5625)"><path d="M 355 0 L 0 1e-13 L 29.5833 312.6563 L 177.5 353.4375 L 325.4167 312.6563 L 355 0" fill="#1572B6" stroke="none"/></g><g transform="translate(177.5 108.75)"><path d="M 128.623 176.7188 L 131.1956 149.5313 L 135.0544 108.75 L 138.9133 67.9688 L 142.7715 27.1875 L 145.3441 0 L 0 0 L 0 299.0625 L 89.8067 274.3023 L 120.1823 265.928 L 124.1441 224.0544 L 128.1065 182.1807 Z" fill="#33A9DC" stroke="none"/></g><g transform="translate(76.9167 0)"><path d="M 53.25 0 L 0 0 L 0 59.8125 L 53.25 59.8125 L 53.25 43.5 L 17.75 43.5 L 17.75 16.3125 L 53.25 16.3125 Z" fill="#000000" stroke="none"/></g><g transform="translate(147.9167 0)"><path d="M 59.1667 0 L 59.1667 16.3125 L 29.5833 16.3125 L 59.1667 43.5 L 59.1667 59.8125 L 0 59.8125 L 0 43.5 L 29.5833 43.5 L 0 16.3125 L 0 0 Z" fill="#000000" stroke="none"/></g><g transform="translate(224.8333 0)"><path d="M 59.1667 0 L 59.1667 16.3125 L 29.5833 16.3125 L 59.1667 43.5 L 59.1667 59.8125 L 0 59.8125 L 0 43.5 L 29.5833 43.5 L 0 16.3125 L 0 0 Z" fill="#000000" stroke="none"/></g><g transform="translate(78.4609 285.4687)"><path d="M 69.0599 73.297 L 53.8724 69.1095 L 5.2712 55.7099 L 1.3088 13.8363 L 0 0 L 47.3333 0 L 49.91 27.2359 L 65.0981 31.4233 L 99.0397 40.7813 L 99.0397 81.5625 Z" fill="#EBEBEB" stroke="none"/></g><g transform="translate(64.3118 135.9375)"><path d="M 3.8583 40.7813 L 51.1916 40.7813 L 65.9833 40.7813 L 113.1882 40.7813 L 113.1882 0 L 62.125 0 L 47.3333 0 L 0 0 Z" fill="#EBEBEB" stroke="none"/></g><g transform="translate(177.5 135.9375)"><path d="M 0 190.3125 L 49.1296 176.7671 L 51.7063 149.5313 L 54.2789 122.3438 L 0 122.3438 L 0 81.5625 L 58.1378 81.5625 L 61.9966 40.7813 L 0 40.7813 L 0 0 L 65.8549 0 L 113.1882 0 L 109.3299 40.7813 L 105.4711 81.5625 L 101.6122 122.3438 L 99.0397 149.5313 L 97.7309 163.3675 L 93.7685 205.2412 L 45.1672 218.6408 L 0 231.0938 L 0 190.3125 Z" stroke="none"/></g><g transform="translate(134.1545 217.5)"><path d="M 43.3461 40.7813 L 3.8589 40.7813 L 0 0 L 43.3461 0 Z" fill="#EBEBEB" stroke="none"/></g></g></g></svg>