<svg xmlns="http://www.w3.org/2000/svg" xmlns:xlink="http://www.w3.org/1999/xlink" xmlns:v="http://vecta.io" width="357" height="437" viewBox="0 0 357 437" ><style><![CDATA[svg{stroke:#000;stroke-linecap:round;stroke-linejoin:round;fill:#fff;fill-rule:evenodd;font-family:Roboto;font-size:14px;text-anchor:middle} svg text{stroke:none}]]></style><g transform="translate(0.5 0.5)"><g ><g transform="translate(0 81.5625)"><path d="M 355 0 L 0 1e-13 L 29.5833 312.6563 L 177.5 353.4375 L 325.4167 312.6563 L 355 0" fill="#E44D26" stroke="none"/></g><g transform="translate(41.4167 0)"><path d="M 0 0 L 0 59.8125 L 17.75 59.8125 L 17.75 38.0625 L 41.4167 38.0625 L 41.4167 59.8125 L 59.1667 59.8125 L 59.1667 0 L 41.4167 0 L 41.4167 21.75 L 17.75 21.75 L 17.75 0 Z" fill="#000000" stroke="none"/></g><g transform="translate(183.4167 0)"><path d="M 0 0 L 0 59.8125 L 17.75 59.8125 L 17.75 27.1875 L 32.5417 48.9375 L 47.3333 27.1875 L 47.3333 59.8125 L 65.0833 59.8125 L 65.0833 0 L 47.3333 0 L 32.5417 19.0313 L 17.75 0 Z" fill="#000000" stroke="none"/></g><g transform="translate(260.3333 0)"><path d="M 0 0 L 0 59.8125 L 53.25 59.8125 L 53.25 43.5 L 17.75 43.5 L 17.75 0 Z" fill="#000000" stroke="none"/></g><g transform="translate(78.4603 285.4688)"><path d="M 53.8724 69.1095 L 5.2712 55.7099 L 1.3088 13.8363 L 0 0 L 47.3333 0 L 49.91 27.2359 L 99.0397 40.7813 L 99.0397 81.5625 Z" fill="#EBEBEB" stroke="none"/></g><g transform="translate(64.3118 135.9375)"><path d="M 113.1882 40.7813 L 51.1916 40.7813 L 55.0504 81.5625 L 113.1882 81.5625 L 113.1882 122.3438 L 58.9093 122.3438 L 11.576 122.3438 L 7.7171 81.5625 L 3.8583 40.7813 L 0 0 L 47.3333 0 L 113.1882 0 Z" fill="#EBEBEB" stroke="none"/></g><g transform="translate(177.5 108.75)"><path d="M 128.623 176.7188 L 131.1956 149.5313 L 135.0544 108.75 L 138.9133 67.9688 L 142.7715 27.1875 L 145.3441 0 L 0 0 L 0 299.0625 L 89.8067 274.3023 L 120.1823 265.928 L 124.1441 224.0544 L 128.1065 182.1807 Z" fill="#F16529" stroke="none"/></g><g transform="translate(112.4167 0)"><path d="M 0 0 L 0 16.3125 L 20.7083 16.3125 L 20.7083 59.8125 L 38.4583 59.8125 L 38.4583 16.3125 L 59.1667 16.3125 L 59.1667 0 Z" fill="#000000" stroke="none"/></g><g transform="translate(177.5 135.9375)"><path d="M 0 40.7813 L 61.9966 40.7813 L 109.3299 40.7813 L 113.1882 0 L 65.8549 0 L 0 0 Z" stroke="none"/></g><g transform="translate(177.5 217.5)"><path d="M 54.2789 40.7813 L 0 40.7813 L 0 0 L 58.1378 0 L 105.4711 0 L 101.6122 40.7813 L 99.0397 67.9688 L 97.7309 81.805 L 93.7685 123.6787 L 45.1672 137.0783 L 0 149.5313 L 0 108.75 L 49.1296 95.2046 L 51.7063 67.9688 Z" stroke="none"/></g></g></g></svg>