<svg xmlns="http://www.w3.org/2000/svg" xmlns:xlink="http://www.w3.org/1999/xlink" xmlns:v="http://vecta.io" width="358" height="95" viewBox="0 0 358 95" ><style><![CDATA[svg{stroke:#000;stroke-linecap:round;stroke-linejoin:round;fill:#fff;fill-rule:evenodd;font-family:Roboto;font-size:14px;text-anchor:middle}svg text{stroke:none}]]></style><g transform="translate(1 0.5)"><g ><g transform="translate(149.533 33.4772)"><path d="M 2.272 0.0036 L 2.2726 0 C 2.2726 0 0 8.6147 0 8.6147 C 0 8.6147 2.2719 0.0036 2.2719 0.0036 Z" fill="#131b28" stroke="none"/></g><g transform="translate(160.9892 52.1672)"><path d="M 2.5044 0.0159 C 2.5044 0.0159 0 0 0 0 C 0 0 2.5044 0.0159 2.5044 0.0159 Z" fill="#131b28" stroke="none"/></g><g transform="translate(147.8474 65.0478)"><path d="M 15.0022 0 L 15.0049 0 C 15.0049 0 0 0.0585 0 0.0585 C 0 0.0585 15.0028 0 15.0028 0 Z" fill="#131b28" stroke="none"/></g><g transform="translate(163.4903 52.183)"><path d="M 2.5053 0.0159 C 2.5053 0.0159 0 0 0 0 C 0 0 2.5053 0.0159 2.5053 0.0159 Z" fill="#131b28" stroke="none"/></g><g transform="translate(164.1649 53.2933)"><path d="M 0 10.6611 C 0 10.6611 2.6137 0 2.6137 0 C 2.6137 0 0 10.6633 0 10.6633 L 0 10.6619 Z" fill="#131b28" stroke="none"/></g><g transform="translate(214.5398 14.8585)"><path d="M 4.869 0 C 4.869 0 0 24.481 0 24.481 C 0 24.481 4.869 0 4.869 0 Z" fill="#131b28" stroke="none"/></g><g transform="translate(203.1964 14.8568)"><path d="M 3.6963 0.0014 C 3.6963 0.0014 0 18.2896 0 18.2896 C 0 18.2896 3.6963 0 3.6963 0 L 3.6963 0.0014 Z" fill="#131b28" stroke="none"/></g><g transform="translate(171.7545 13.7569)"><path d="M 46.8203 0 L 36.4088 0 C 35.8311 0 35.2576 0.4957 35.1342 1.0994 C 35.1342 1.0994 31.438 19.389 31.438 19.389 C 31.438 19.389 27.7418 37.6786 27.7418 37.6786 C 27.6193 38.2823 27.0466 38.7764 26.4689 38.7764 L 20.1515 38.7764 L 19.0996 38.7764 C 11.809 38.7764 12.6523 33.3837 14.1453 25.9942 C 14.1603 25.9198 14.1753 25.8473 14.1901 25.7711 C 14.1901 25.7711 14.3539 24.8398 14.3539 24.8398 C 14.3638 24.7796 14.3755 24.7195 14.3845 24.6646 C 14.3845 24.6646 14.7172 22.7685 14.7172 22.7685 C 14.7172 22.7685 15.0739 20.7361 15.0739 20.7361 C 15.1824 20.1236 15.3471 19.2278 15.4547 18.6648 C 15.4547 18.6648 17.1348 9.884 17.1348 9.884 C 17.1348 9.884 18.8165 1.1032 18.8165 1.1032 C 18.9324 0.4978 18.5534 0.0002 17.9757 0.0002 L 7.289 0.0002 C 6.7113 0.0002 6.1393 0.4978 6.021 1.1015 C 6.021 1.1015 3.7235 12.7611 3.7235 12.7611 C 3.7235 12.7611 1.4259 24.4192 1.4259 24.4192 C 1.4239 24.4244 1.4232 24.4317 1.4226 24.4369 C 1.4226 24.4369 1.209 25.5205 1.209 25.5205 C -1.4378 38.444 -0.7359 50.7679 13.6483 51.1536 C 13.8834 51.1609 14.0655 51.1627 14.0655 51.1627 L 36.6444 51.1627 C 37.2221 51.1627 37.7939 50.667 37.9149 50.0616 C 37.9149 50.0616 42.7838 25.5828 42.7838 25.5828 C 42.7838 25.5828 47.6528 1.1018 47.6528 1.1018 C 47.7729 0.4964 47.3979 0.0007 46.8202 0.0007 Z" fill="#131b28" stroke="none"/></g><g transform="translate(259.9386 52.6609)"><path d="M 0.1705 0 C 0.749 0 1.1273 0.4957 1.0114 1.1012 C 1.0114 1.1012 0 6.3857 0 6.3857" fill="#131b28" stroke="none"/></g><g transform="translate(258.9286 59.0461)"><path d="M 0.0009 5.2881 C 0.0009 5.2881 1.0114 0 1.0114 0 C 1.0114 0 0 5.2898 0 5.2898 C 0 5.2884 0.0006 5.2884 0.0006 5.2884 Z" fill="#131b28" stroke="none"/></g><g transform="translate(238.4748 65.4452)"><path d="M 19.1868 0.0014 C 19.1882 0.0014 19.1902 0 19.1915 0 C 16.1276 0.0265 6.9203 0.1009 0 0.1009 C 8.4221 0.1009 19.1861 0.0017 19.1861 0.0017 Z" fill="#131b28" stroke="none"/></g><g transform="translate(231.9156 44.2552)"><path d="M 0.348 1.5987 C 0.3395 1.0197 0.9555 0.023 1.5341 0.023 C 1.5341 0.023 0.2338 0 0.2338 0 C -0.3522 6.3025 0.348 1.5987 0.348 1.5987 Z" fill="#131b28" stroke="none"/></g><g transform="translate(239.223 65.5437)"><path d="M 0.2003 0 C 0.1341 0 0.0663 0 0 0.0014 C 0.0662 0 0.134 0 0.2003 0 Z" fill="#131b28" stroke="none"/></g><g transform="translate(259.7739 52.6608)"><path d="M 0.3352 0 C 0.9137 0 1.292 0.4957 1.1761 1.1012 C 1.1761 1.1012 0.1647 6.3857 0.1647 6.3857 C 0.1647 6.3857 0 7.248 0 7.248" fill="#131b28" stroke="none"/></g><g transform="translate(244.3103 65.5314)"><path d="M 0.0423 0 L 0 0 L 0.0423 0 Z" fill="#131b28" stroke="none"/></g><g transform="translate(241.6484 65.5401)"><path d="M 0.1481 0 L 0 0 L 0.1481 0 Z" fill="#131b28" stroke="none"/></g><g transform="translate(240.7718 65.5423)"><path d="M 0.2449 0 C 0.1622 0 0.0811 0 0 0.0014 C 0.0811 0 0.1622 0 0.2449 0 Z" fill="#131b28" stroke="none"/></g><g transform="translate(240.0082 65.5437)"><path d="M 0.2152 0 L 0 0 L 0.2152 0 Z" fill="#131b28" stroke="none"/></g><g transform="translate(241.0165 65.5401)"><path d="M 0.6306 0 C 0.4197 0 0.2086 0.0014 0 0.0014 C 0.2086 0.0014 0.4197 0 0.6306 0 Z" fill="#131b28" stroke="none"/></g><g transform="translate(241.7998 65.5314)"><path d="M 2.5119 0 C 1.6694 0.0036 0.8284 0.0072 0 0.0091 C 0.8284 0.0076 1.6702 0.004 2.5119 0 Z" fill="#131b28" stroke="none"/></g><g transform="translate(244.3489 65.4445)"><path d="M 13.3194 0 L 13.32 0 C 11.0746 0.0195 5.5298 0.0637 0 0.0867 C 5.5269 0.0656 11.0732 0.0195 13.3194 0 Z" fill="#131b28" stroke="none"/></g><g transform="translate(258.9286 59.9086)"><path d="M 0.0009 4.4277 C 0.0009 4.4277 0.8475 0 0.8475 0 C 0.8475 0 0 4.4312 0 4.4312 C 0 4.4298 0.0006 4.4298 0.0006 4.4276 Z" fill="#131b28" stroke="none"/></g><g transform="translate(240.223 65.5437)"><path d="M 0.5495 0 L 0 0 L 0.5495 0 Z" fill="#131b28" stroke="none"/></g><g transform="translate(238.4769 65.5452)"><path d="M 0.7432 0 L 0 0 L 0.7432 0 Z" fill="#131b28" stroke="none"/></g><g transform="translate(239.4206 65.5437)"><path d="M 0.586 0 L 0 0 L 0.586 0 Z" fill="#131b28" stroke="none"/></g><g transform="translate(85.7003 38.3189)"><path d="M 2.0062 7.6677 C 2.0062 7.6677 3.6234 0 3.6234 0 C 3.6234 0 1.7745 8.7648 1.7745 8.7648 C 1.7745 8.7648 0 17.6928 0 17.6928 C 0 17.6928 1.5551 9.8664 1.5551 9.8664 C 1.6752 9.2608 1.8787 8.2712 2.0062 7.6675 Z" fill="#131b28" stroke="none"/></g><g transform="translate(92.1515 13.6279)"><path d="M 14.912 0 L 3.4782 0 C 2.8996 0 2.3227 0.4939 2.1936 1.0959 C 2.1936 1.0959 1.1094 6.214 1.1094 6.214 C 1.1094 6.214 0.0252 11.3339 0.0252 11.3339 C -0.1022 11.9359 0.2661 12.4298 0.8446 12.4298 L 12.3673 12.4298 C 12.9449 12.4298 13.5194 11.9359 13.6435 11.3322 C 13.6435 11.3322 14.6913 6.214 14.6913 6.214 C 14.6913 6.214 15.739 1.0994 15.739 1.0994 L 15.739 1.098 C 15.8624 0.4943 15.4907 0.0002 14.9123 0.0002 Z" fill="#131b28" stroke="none"/></g><g transform="translate(101.2216 30.6519)"><path d="M 3.3536 0.0014 L 3.3536 0 C 3.3536 0 0 16.5935 0 16.5935 C 0 16.5935 3.3536 0.0014 3.3536 0.0014 Z" fill="#131b28" stroke="none"/></g><g transform="translate(71.3552 85.6307)"><path d="M 0.0047 0.0017 C 0.0047 0.0017 5.7684 0.0814 9.4323 0.0814 C 6.649 0.0814 2.0523 0.0266 0 0 C 0.002 0 0.0034 0.0014 0.0054 0.0014 Z" fill="#131b28" stroke="none"/></g><g transform="translate(89.3219 30.6513)"><path d="M 1.6189 0 C 1.6189 0 0 7.6677 0 7.6677 C 0 7.6677 1.6189 0 1.6189 0 Z" fill="#131b28" stroke="none"/></g><g transform="translate(70.5233 29.5541)"><path d="M 33.2248 0 L 21.7007 0 C 21.1231 0 20.5454 0.4939 20.4179 1.0976 C 20.4179 1.0976 18.799 8.7654 18.799 8.7654 C 18.799 8.7654 17.1818 16.433 17.1818 16.433 C 17.0544 17.0368 16.8508 18.0264 16.7307 18.6319 C 16.7307 18.6319 15.1756 26.4583 15.1756 26.4583 C 15.1756 26.4583 13.6214 34.2848 13.6214 34.2848 C 13.5005 34.8885 13.2522 35.8639 13.0668 36.45 C 13.0668 36.45 10.9141 43.3013 7.2948 43.2234 C 7.1409 43.2198 6.991 43.2183 6.8429 43.2143 C 5.0891 43.1789 3.7112 43.1524 3.7112 43.1524 L 3.7085 43.1524 C 3.1315 43.1433 2.5514 43.625 2.4165 44.2252 C 2.4165 44.2252 1.2214 49.5983 1.2214 49.5983 C 1.2214 49.5983 0.0279 54.9696 0.0279 54.9696 C -0.1062 55.5697 0.2564 56.0654 0.8307 56.0761 C 2.8834 56.1026 7.48 56.1575 10.2631 56.1575 C 19.3036 56.1575 24.0693 50.8003 27.1244 35.3843 C 27.1244 35.3843 30.6998 17.6914 30.6998 17.6914 C 30.6998 17.6914 34.0533 1.0979 34.0533 1.0979 C 34.175 0.4942 33.8017 0.0002 33.224 0.0002 Z" fill="#131b28" stroke="none"/></g><g transform="translate(266.5981 20.3885)"><path d="M 0.8538 44.5301 C 0.2762 44.5301 -0.0987 44.0345 0.0229 43.429 C 0.0229 43.429 8.6919 0 8.6919 0" fill="#131b28" stroke="none"/></g><g transform="translate(279.5001 45.2794)"><path d="M 0 18.5362 C 0 18.5362 3.5059 0 3.5059 0 C 3.5059 0 0 18.5362 0 18.5362 Z" fill="#131b28" stroke="none"/></g><g transform="translate(266.5972 42.1039)"><path d="M 0.1495 22.2644 C 0.0792 21.9617 0.1206 21.2199 0.2431 20.6145 C 0.2431 20.6145 4.3573 0 4.3573 0 C 4.3573 0 0.0229 21.7138 0.0229 21.7138 C -0.0987 22.3192 0.2762 22.815 0.854 22.815 L 1.9067 22.815 C 1.3281 22.815 0.2191 22.5672 0.1495 22.2644 Z" fill="#131b28" stroke="none"/></g><g transform="translate(277.1906 62.7143)"><path d="M 1.6246 1.9563 C 1.3102 2.0926 0.5784 2.2041 0 2.2041 L 1.0527 2.2041 C 1.6304 2.2041 2.1982 1.7084 2.3124 1.1012 C 2.3124 1.1012 2.5209 0 2.5209 0 C 2.4059 0.6054 1.9399 1.82 1.6246 1.9563 Z" fill="#131b28" stroke="none"/></g><g transform="translate(281.256 46.3667)"><path d="M 0.0002 8.1811 C 0.0002 8.1811 1.5479 0 1.5479 0 C 1.5472 0.0051 1.5465 0.0124 1.5452 0.0159 C 1.5452 0.0159 0 8.1811 0 8.1811 Z" fill="#131b28" stroke="none"/></g><g transform="translate(315.1286 23.2974)"><path d="M 0.3327 0 C 0.3327 0 0.8103 2.1103 0.8103 2.1103 C 0.9419 2.714 0.5769 3.2044 0 3.2062" fill="#131b28" stroke="none"/></g><g transform="translate(279.7103 54.5483)"><path d="M 0 8.1666 C 0 8.1666 1.5435 0 1.5435 0 C 1.5435 0 0 8.1666 0 8.1666 Z" fill="#131b28" stroke="none"/></g><g transform="translate(314.9868 21.1361)"><path d="M 0 0 C 0 0 0.4726 2.1617 0.4726 2.1617 C 0.4726 2.1617 0 0 0 0 Z" fill="#131b28" stroke="none"/></g><g transform="translate(282.8019 35.8989)"><path d="M 0 10.4683 C 0.1151 9.8628 0.3054 8.882 0.4255 8.2819 C 0.4255 8.2819 2.0781 0 2.0781 0 C 2.0781 0 0.2061 9.3813 0.2061 9.3813 C 0.2061 9.3813 0 10.4682 0 10.4682 Z" fill="#131b28" stroke="none"/></g><g transform="translate(270.9579 19.6769)"><path d="M 4.4742 0 C 4.3592 0.5843 4.2118 1.3225 4.1142 1.8112 C 4.1142 1.8112 0 22.4271 0 22.4271 C 0 22.4271 4.3343 0.7118 4.3343 0.7118 C 4.3343 0.7118 4.4742 0.0001 4.4742 0.0001 Z" fill="#131b28" stroke="none"/></g><g transform="translate(266.7148 13.8861)"><path d="M 49.2212 11.5217 C 49.2212 11.5217 48.7437 9.4113 48.7437 9.4113 C 48.7437 9.4113 48.2711 7.2497 48.2711 7.2497 C 48.2711 7.2497 48.0318 6.1556 48.0318 6.1556 C 47.0958 2.2661 44.348 0.0212 38.3819 0.0212 C 38.3819 0.0212 29.0932 0.0106 29.0932 0.0106 C 29.0932 0.0106 20.5388 0 20.5388 0 L 19.8047 0 L 10.9134 0 C 10.3357 0 9.7638 0.4939 9.6446 1.0994 L 9.644 1.0994 C 9.644 1.0994 9.2185 3.2504 9.2185 3.2504 C 9.2185 3.2504 8.7161 5.7909 8.7161 5.7909 C 8.7161 5.7909 8.5763 6.5026 8.5763 6.5026 C 8.5763 6.5026 4.242 28.2178 4.242 28.2178 C 4.242 28.2178 0.1278 48.8322 0.1278 48.8322 C 0.0053 49.4376 -0.0361 50.1794 0.0342 50.4823 C 0.1037 50.785 1.2128 51.0328 1.7913 51.0328 L 10.4752 51.0328 C 11.0538 51.0328 11.7854 50.9212 12.0998 50.785 C 12.4151 50.6486 12.881 49.4342 12.9961 48.8286 C 12.9961 48.8286 14.5396 40.662 14.5396 40.662 C 14.5396 40.662 16.0849 32.4969 16.0849 32.4969 C 16.0855 32.4933 16.0863 32.4863 16.0876 32.481 C 16.0876 32.481 16.2937 31.394 16.2937 31.394 C 16.2937 31.394 18.1657 22.0128 18.1657 22.0128 C 18.1657 22.0128 19.8194 13.7273 19.8194 13.7273 C 19.9419 13.1253 20.5113 12.6331 21.0881 12.6314 C 21.0881 12.6314 48.4117 12.6173 48.4117 12.6173 C 48.9885 12.6158 49.3535 12.1251 49.222 11.5214 Z" fill="#131b28" stroke="none"/></g><g transform="translate(302.5083 6.3034)"><path d="M 48.6025 0.0232 C 48.0241 0.0275 47.0781 0.0313 46.4995 0.0313 L 37.7539 0.0313 C 37.1754 0.0313 36.4347 0.4491 36.1086 0.9599 C 36.1086 0.9599 16.7699 31.2615 16.7699 31.2615 C 16.443 31.7731 16.0705 31.697 15.9423 31.0952 C 15.9423 31.0952 14.5195 24.419 14.5195 24.419 C 14.3913 23.8154 13.8119 23.3233 13.2342 23.3233 L 0.8017 23.3233 C 0.2231 23.3233 -0.1195 23.8083 0.0385 24.4032 C 0.0385 24.4032 5.6094 45.2758 5.6094 45.2758 C 5.7683 45.8707 5.7799 46.8479 5.6368 47.4463 C 5.6368 47.4463 3.2085 57.5483 3.2085 57.5483 C 3.0645 58.1484 3.4204 58.6389 3.9989 58.6389 L 16.2863 58.6389 C 16.864 58.6389 17.4549 58.1484 17.5981 57.5483 C 17.5981 57.5483 20.0273 47.4463 20.0273 47.4463 C 20.1705 46.8479 20.5727 45.9522 20.9211 45.4582 C 20.9211 45.4582 52.3168 0.8914 52.3168 0.8914 C 52.6652 0.3975 52.4765 -0.0044 51.8989 0 C 51.8989 0 48.6032 0.0231 48.6032 0.0231 Z" fill="#131b28" stroke="none"/></g><g transform="translate(218.8059 13.0093)"><path d="M 33.5333 19.4585 C 33.5333 19.4585 33.5327 19.4462 33.5327 19.4462 C 33.4598 20.1172 32.8813 20.6093 32.3035 20.6093 L 16.5413 20.6093 C 15.9967 20.6093 15.7194 20.2127 15.7997 19.7241 C 15.8045 19.71 15.8064 19.6975 15.8146 19.6852 C 15.8146 19.6852 15.8092 19.6866 15.8047 19.6902 C 15.8082 19.6708 15.8082 19.6531 15.8132 19.6336 C 15.8132 19.6336 15.843 19.515 15.8853 19.3468 C 17.3907 15.066 20.4571 12.2565 26.2201 12.2565 C 32.7079 12.2565 33.9744 15.6468 33.5336 19.4583 Z M 28.9093 0 C 8.677 0 3.8827 13.1345 1.1931 26.391 C -1.4967 39.9026 -1.265 52.5361 19.6708 52.5361 L 20.414 52.5361 C 20.4802 52.5347 20.548 52.5347 20.6143 52.5347 L 21.2003 52.5347 L 21.4154 52.5347 L 21.965 52.5347 C 22.0461 52.5331 22.1273 52.5331 22.21 52.5331 C 22.4186 52.5331 22.6296 52.5318 22.8406 52.5318 L 22.9888 52.5318 C 23.8173 52.5302 24.6582 52.5259 25.5006 52.5227 L 25.5429 52.5227 C 31.0724 52.4997 36.6174 52.4555 38.8636 52.436 C 39.438 52.4269 40 51.9313 40.1183 51.3312 C 40.1183 51.3312 40.9658 46.9 40.9658 46.9 C 40.9658 46.9 41.1305 46.0378 41.1305 46.0378 C 41.1305 46.0378 42.1419 40.7533 42.1419 40.7533 C 42.2578 40.1478 41.8796 39.6521 41.301 39.6521 L 22.479 39.6521 C 14.9932 39.6521 12.77 37.524 13.5891 31.2694 L 43.6768 31.2694 C 43.6768 31.2694 43.674 31.273 43.674 31.273 C 43.6818 31.273 43.6881 31.2694 43.6948 31.2694 C 44.1731 31.2603 44.6151 30.9082 44.7906 30.439 C 44.8237 30.3488 44.8519 30.255 44.8634 30.1576 C 44.8634 30.1576 44.86 30.1612 44.86 30.1612 C 49.3276 12.1385 48.0463 0.0009 28.9079 0.0009 Z" fill="#131b28" stroke="none"/></g><g transform="translate(109.3602 0)"><path d="M 42.7294 32.3988 C 42.7294 32.3988 42.4448 33.477 42.4448 33.477 C 42.4448 33.4806 42.444 33.4806 42.444 33.4806 C 42.444 33.4806 40.1722 42.0917 40.1722 42.0917 C 40.1722 42.0917 37.9012 50.7013 37.9012 50.7013 C 37.7439 51.2961 37.143 51.783 36.5637 51.783 L 24.5386 51.783 C 15.4174 51.783 13.1963 44.153 15.4174 32.8988 C 17.638 21.3878 21.9922 14.232 30.9694 13.5077 C 43.2373 12.5179 45.6916 21.7468 42.7294 32.3991 Z M 50.9761 51.1206 C 50.9761 51.1206 56.6453 36.398 57.933 27.8935 C 59.689 16.5094 54.36 0 33.7758 0 C 13.3088 0 4.4216 15.7625 1.0302 32.8977 C -2.3607 50.1569 2.0821 65.2936 22.4328 65.1695 C 22.4328 65.1695 38.4872 65.1058 38.4872 65.1058 C 38.4872 65.1058 53.492 65.0473 53.492 65.0473 C 54.0697 65.0423 54.6606 64.5517 54.808 63.9551 C 54.808 63.9551 57.4217 53.2918 57.4217 53.2918 C 57.5673 52.6933 57.2139 52.2013 56.6363 52.1977 C 56.6363 52.1977 54.131 52.1817 54.131 52.1817 C 54.131 52.1817 51.6266 52.1658 51.6266 52.1658 C 51.1349 52.1621 50.8536 51.8223 50.9132 51.3709 C 50.924 51.2895 50.9413 51.2062 50.9745 51.1194 Z" fill="#131b28" stroke="none"/></g><g transform="translate(260.2745 40.5301)"><path d="M 1.3805 0.7364 C 1.3805 1.1437 1.0719 1.4747 0.6903 1.4747 C 0.3096 1.4747 0 1.1437 0 0.7364 C 0 0.3292 0.3095 0 0.6903 0 C 1.0718 0 1.3805 0.3293 1.3805 0.7364 Z" fill="#131b28" stroke="none"/></g><g transform="translate(0 16.1399)"><path d="M 4.0534 5.9836 C -1.5977 14.6709 -0.8942 25.9729 3.4227 35.2033 C 3.5253 35.4246 3.633 35.6424 3.7389 35.8601 C 3.8068 35.9982 3.8706 36.1399 3.9409 36.2762 C 3.9806 36.3575 4.0253 36.4373 4.0667 36.5152 C 4.1404 36.6621 4.2157 36.802 4.2918 36.9454 C 4.4259 37.1985 4.5632 37.4499 4.7039 37.7014 C 4.7817 37.8394 4.8587 37.9775 4.939 38.1156 C 5.0946 38.3847 5.2543 38.6502 5.4174 38.9159 C 5.4853 39.0291 5.5514 39.1424 5.6209 39.2522 C 5.8461 39.6116 6.0762 39.9692 6.3137 40.3214 C 6.3196 40.3305 6.3261 40.341 6.3335 40.3498 C 6.3708 40.4064 6.4121 40.4613 6.4502 40.5179 C 6.6555 40.8207 6.8673 41.1198 7.0817 41.4156 C 7.1603 41.5236 7.2398 41.6316 7.3192 41.7395 C 7.5104 41.9962 7.7049 42.2512 7.9027 42.506 C 7.9764 42.6017 8.0508 42.6972 8.1254 42.791 C 8.391 43.1257 8.6617 43.4586 8.9381 43.7843 C 8.9432 43.7893 8.9496 43.7966 8.9546 43.802 C 8.9662 43.816 8.9761 43.825 8.986 43.839 C 9.2558 44.1542 9.5323 44.4623 9.8121 44.7703 C 9.899 44.8659 9.9875 44.9616 10.0769 45.0554 C 10.2937 45.289 10.5139 45.5192 10.7365 45.7475 C 10.8267 45.8396 10.9161 45.9334 11.0064 46.022 C 11.3034 46.3211 11.6039 46.615 11.9101 46.9019 C 11.9152 46.9069 11.9192 46.9109 11.9242 46.9142 C 11.9763 46.9638 12.0301 47.0099 12.0814 47.0577 C 12.3513 47.3072 12.626 47.5551 12.9024 47.7994 C 13.015 47.8969 13.1292 47.9924 13.2426 48.0898 C 13.4686 48.2828 13.697 48.4739 13.9271 48.6617 C 14.0487 48.7608 14.1704 48.8599 14.2928 48.959 C 14.5469 49.1591 14.8027 49.3557 15.0609 49.5487 C 15.1553 49.6212 15.2463 49.692 15.3406 49.7611 C 15.3671 49.7806 15.3912 49.8 15.4176 49.8195 C 15.6626 50.0001 15.9133 50.1735 16.1633 50.3471 C 16.2709 50.4232 16.3776 50.5028 16.4861 50.5772 C 16.8701 50.8374 17.26 51.0942 17.6539 51.3421 C 17.7606 51.4076 17.8691 51.4712 17.9766 51.5368 C 18.2663 51.7156 18.5577 51.8909 18.8532 52.0626 C 19.0129 52.1546 19.1768 52.2414 19.3381 52.3299 C 19.5467 52.4468 19.7536 52.5654 19.9655 52.6787 C 20.0135 52.7036 20.0632 52.7282 20.1103 52.753 C 20.1956 52.7972 20.2817 52.8397 20.3669 52.8857 C 20.6954 53.0539 21.0265 53.2186 21.3609 53.3779 C 21.4321 53.4115 21.5008 53.4452 21.5712 53.4788 C 21.9544 53.6576 22.3408 53.8293 22.7306 53.9941 C 22.8242 54.0348 22.9186 54.0737 23.0129 54.1126 C 23.3737 54.2613 23.7396 54.4083 24.1071 54.5464 C 24.1534 54.564 24.1981 54.58 24.2444 54.5976 C 24.6475 54.7482 25.0547 54.888 25.4643 55.0243 C 25.562 55.0544 25.6605 55.0881 25.759 55.1181 C 26.1762 55.2527 26.5883 55.4138 27.0187 55.4988 C 54.349 60.8293 62.2877 37.9328 62.2877 37.9328 C 55.6202 47.2234 43.785 49.6736 32.5716 46.9457 C 32.147 46.8429 31.7348 46.7014 31.3201 46.5703 C 31.215 46.5367 31.1115 46.5031 31.008 46.4694 C 30.6033 46.3367 30.202 46.1968 29.8031 46.0499 C 29.7484 46.0287 29.693 46.0073 29.6375 45.9861 C 29.28 45.8516 28.9266 45.71 28.5748 45.5648 C 28.4755 45.5222 28.3762 45.4815 28.2769 45.4391 C 27.8913 45.2762 27.5081 45.1063 27.1297 44.9292 C 27.0519 44.8938 26.9775 44.8566 26.9005 44.8212 C 26.5753 44.6636 26.2533 44.5043 25.9331 44.3396 C 25.8403 44.2918 25.7476 44.2458 25.6532 44.1963 C 25.4017 44.065 25.1529 43.9251 24.9047 43.7887 C 24.7386 43.6952 24.5699 43.6068 24.405 43.5088 C 24.102 43.3356 23.8043 43.1549 23.5081 42.9708 C 23.4077 42.9106 23.3061 42.8525 23.205 42.7902 C 22.8111 42.5422 22.4219 42.2855 22.0368 42.0252 C 21.9304 41.9527 21.8266 41.8751 21.7216 41.8004 C 21.4422 41.6075 21.1642 41.4109 20.8903 41.2094 C 20.7994 41.1434 20.712 41.0731 20.6225 41.0078 C 20.358 40.8077 20.0963 40.6053 19.8366 40.4001 C 19.7187 40.3066 19.6028 40.2123 19.4882 40.1188 C 19.2502 39.9237 19.0136 39.7272 18.7789 39.5256 C 18.6731 39.4354 18.5671 39.3451 18.4628 39.2547 C 18.1649 38.9927 17.8703 38.7289 17.5797 38.4581 C 17.5491 38.4298 17.516 38.4014 17.4829 38.3713 C 17.1684 38.0757 16.8597 37.773 16.5543 37.4684 C 16.4657 37.3782 16.3797 37.2896 16.2928 37.1993 C 16.0669 36.9692 15.8442 36.7373 15.6257 36.5001 C 15.5379 36.4062 15.4502 36.3142 15.3642 36.2204 C 15.0861 35.9158 14.8129 35.6078 14.5456 35.2944 C 14.5324 35.2785 14.5183 35.2643 14.5051 35.2484 C 14.222 34.9173 13.9456 34.5793 13.6749 34.2376 C 13.6013 34.1438 13.5301 34.0535 13.4573 33.9614 C 13.2554 33.7011 13.0551 33.4373 12.8597 33.1718 C 12.7864 33.076 12.7133 32.9782 12.6407 32.8796 C 12.4054 32.5533 12.1756 32.2276 11.9505 31.897 C 5.7248 22.8145 3.4883 10.2877 8.4643 0" fill="#0868ac" stroke="none"/></g><g transform="translate(18.5265 9.7628)"><path d="M 3.0693 5.0418 C -1.0175 11.3319 -0.7958 19.752 2.3923 26.4046 C 2.9269 27.5199 3.5279 28.6016 4.1999 29.632 C 4.8123 30.5703 5.491 31.6874 6.3037 32.4415 C 6.5984 32.7885 6.9063 33.1267 7.2207 33.4595 C 7.3001 33.5463 7.3812 33.6295 7.4623 33.7145 C 7.7677 34.0314 8.0781 34.3429 8.3992 34.6456 C 8.4124 34.6562 8.4241 34.6704 8.4373 34.6811 C 8.4406 34.6848 8.4441 34.6862 8.4463 34.6902 C 8.8014 35.023 9.168 35.3435 9.5405 35.6585 C 9.6233 35.7258 9.7052 35.7966 9.7888 35.8657 C 10.162 36.172 10.5428 36.473 10.9334 36.7598 C 10.945 36.7688 10.9549 36.7774 10.9665 36.7863 C 11.1387 36.9138 11.3142 37.0324 11.4888 37.1546 C 11.5724 37.2129 11.6519 37.2749 11.7362 37.3297 C 12.0151 37.521 12.2974 37.7069 12.5845 37.8856 C 12.6252 37.9123 12.6648 37.9353 12.7046 37.96 C 12.952 38.1122 13.2028 38.2628 13.4544 38.408 C 13.5422 38.461 13.6316 38.507 13.721 38.5566 C 13.8947 38.6539 14.0686 38.7531 14.2456 38.8469 C 14.2721 38.8611 14.2995 38.8735 14.3251 38.886 C 14.6851 39.0754 15.0485 39.2577 15.4193 39.4312 C 15.4987 39.4684 15.5806 39.502 15.6609 39.5374 C 15.9572 39.6721 16.2569 39.8031 16.5581 39.927 C 16.6856 39.9783 16.8146 40.0279 16.942 40.0774 C 17.2151 40.1854 17.4891 40.2846 17.7656 40.3837 C 17.8905 40.4262 18.013 40.4705 18.138 40.5112 C 18.5311 40.6422 18.9193 40.8068 19.329 40.8794 C 40.4305 44.6184 45.302 27.2424 45.302 27.2424 C 40.9105 34.007 32.4063 37.2341 23.3313 34.7149 C 22.9282 34.6017 22.5309 34.4778 22.1361 34.3449 C 22.0153 34.306 21.897 34.2635 21.7769 34.221 C 21.4963 34.1237 21.2174 34.0209 20.941 33.9129 C 20.8144 33.8634 20.6878 33.8139 20.5637 33.7625 C 20.2607 33.6386 19.9611 33.5093 19.664 33.3748 C 19.5829 33.3376 19.5009 33.304 19.4214 33.2651 C 19.049 33.0915 18.6824 32.9092 18.3207 32.718 C 18.1345 32.6206 17.9516 32.5179 17.7687 32.417 C 17.6628 32.3587 17.5559 32.3002 17.45 32.2417 C 17.215 32.1055 16.9816 31.9638 16.7515 31.8204 C 16.697 31.7867 16.6397 31.7549 16.5843 31.7195 C 16.2988 31.5406 16.0174 31.3566 15.7385 31.1671 C 15.6524 31.1086 15.5696 31.0449 15.4835 30.9848 C 15.2998 30.8573 15.116 30.728 14.9356 30.597 C 14.5466 30.3102 14.1684 30.0092 13.7951 29.7048 C 13.709 29.6321 13.623 29.5613 13.5386 29.4888 C 9.5662 26.1343 6.4176 21.5507 4.9205 16.3528 C 3.3515 10.962 3.6899 4.9106 6.408 0" fill="#0868ac" stroke="none"/></g><g transform="translate(34.2987 6.6774)"><path d="M 2.0512 2.6589 C -0.358 6.4511 -0.5947 11.1605 1.0771 15.349 C 2.84 19.7944 6.4527 23.282 10.6688 24.9353 C 10.8427 25.0044 11.0164 25.0663 11.1927 25.1301 C 11.2697 25.1549 11.3458 25.1832 11.4237 25.2079 C 11.672 25.2911 11.9185 25.3885 12.1751 25.4398 C 23.8266 27.8476 26.9868 19.0452 27.8282 17.7496 C 25.0598 22.0128 20.4074 23.036 14.6994 21.5543 C 14.2485 21.4367 13.7529 21.2627 13.3183 21.0981 C 12.761 20.8856 12.2118 20.6434 11.6782 20.3693 C 10.6645 19.8486 9.6984 19.2164 8.8028 18.4927 C 3.6947 14.3477 0.5216 6.44 3.8546 0" fill="#0868ac" stroke="none"/></g><g transform="translate(154.3986 81.1761)"><path d="M 13.1768 2.02 C 13.1768 2.02 9.8183 10.2011 9.8183 10.2011 L 6.1105 10.2011 C 6.1105 10.2011 6.4142 2.7676 6.4142 2.7676 C 6.4142 2.7676 3.6847 10.2011 3.6847 10.2011 L 0.0943 10.2011 C 0.0943 10.2011 0 2.02 0 2.02 C 0 2.02 0.3964 0 0.3964 0 L 2.939 0 C 2.939 0 2.449 8.0803 2.449 8.0803 C 2.449 8.0803 5.2712 0 5.2712 0 L 8.816 0 C 8.816 0 8.5595 8.1811 8.5595 8.1811 C 8.5595 8.1811 11.3586 0 11.3586 0 L 13.5734 0 C 13.5734 0 13.1768 2.02 13.1768 2.02 Z" fill="#0868ac" stroke="none"/></g><g transform="translate(167.6661 81.0786)"><path d="M 5.7604 4.5396 C 6.0873 2.9426 5.9938 2.6434 5.2241 2.6434 L 4.0579 2.6434 C 4.0579 2.6434 3.3114 6.386 3.3114 6.386 C 3.3114 6.386 2.1684 10.3003 2.1684 10.3003 L 0 10.3003 C 0 10.3003 1.772 1.4216 1.772 1.4216 C 1.772 1.4216 2.0293 0.1239 2.0293 0.1239 L 4.0116 0.1239 C 4.0116 0.1239 4.2682 0.7223 4.2682 0.7223 C 4.2682 0.7223 5.4111 0 6.5293 0 C 8.9088 0 8.7225 1.9191 8.2086 4.5392 L 5.7605 4.5392 Z" fill="#0868ac" stroke="none"/></g><g transform="translate(176.9734 76.8109)"><path d="M 3.4975 3.0929 C 2.5424 3.0929 1.9357 2.7937 2.1684 1.5473 C 2.425 0.2992 3.1714 0 4.1034 0 C 5.0379 0 5.6668 0.2992 5.4103 1.5473 C 5.1769 2.7688 4.4312 3.0929 3.4976 3.0929 Z M 2.4721 14.5668 L 0.3252 14.5668 C 0.3252 14.5668 0.7457 10.5764 0.7457 10.5764 C 0.7457 10.5764 1.4922 6.8853 1.4922 6.8853 C 1.4922 6.8853 0 6.5348 0 6.5348 C 0 6.5348 0.4197 4.366 0.4197 4.366 L 4.4999 4.366 C 4.4999 4.366 2.4722 14.5667 2.4722 14.5667 Z" fill="#0868ac" stroke="none"/></g><g transform="translate(182.0794 78.5769)"><path d="M 6.67 4.764 C 6.67 4.764 3.9885 5.1147 3.9885 5.1147 C 3.9885 5.1147 3.2179 9.0059 3.2179 9.0059 C 3.0077 10.0788 3.0077 10.378 3.8949 10.378 L 5.69 10.378 C 5.69 10.378 5.3167 12.4227 5.3167 12.4227 C 5.3167 12.4227 3.6854 12.9468 2.9845 12.9468 C 0.2326 12.9468 0.2557 11.3251 0.7466 8.905 C 0.7466 8.905 1.4932 5.0899 1.4932 5.0899 C 1.4932 5.0899 0 4.741 0 4.741 C 0 4.741 0.4428 2.5705 0.4428 2.5705 L 2.0062 2.5705 C 2.0062 2.5705 2.8926 0 2.8926 0 L 5.0148 0 C 5.0148 0 4.5008 2.5705 4.5008 2.5705 L 7.1128 2.5705 C 7.1128 2.5705 6.6699 4.764 6.6699 4.764 Z" fill="#0868ac" stroke="none"/></g><g transform="translate(189.0935 81.0285)"><path d="M 5.229 2.4431 C 3.9701 2.4431 3.3163 3.1425 3.0606 4.3888 C 3.0606 4.3888 6.6517 4.0648 6.6517 4.0648 C 6.8147 3.2168 6.6517 2.4431 5.229 2.4431 Z M 2.7113 6.2334 C 2.5466 7.4816 2.9902 7.9048 4.4824 7.9048 L 8.2366 7.9048 C 8.2366 7.9048 7.8641 9.8008 7.8641 9.8008 C 7.8641 9.8008 5.6021 10.4735 3.9229 10.4735 C -0.2517 10.4735 -0.2989 7.956 0.2382 5.2616 C 0.7746 2.6167 1.7305 0 5.7644 0 C 9.6601 0 9.8471 2.5175 8.8904 6.2334 L 2.7112 6.2334 Z" fill="#0868ac" stroke="none"/></g><g transform="translate(204.3958 77.2584)"><path d="M 2.1444 14.1173 L 0 14.1173 C 0 14.1173 0.4197 10.1269 0.4197 10.1269 C 0.4197 10.1269 1.9358 2.544 1.9358 2.544 C 1.9358 2.544 0.4419 2.1705 0.4419 2.1705 C 0.4419 2.1705 0.8856 0 0.8856 0 L 4.9674 0 C 4.9674 0 2.1444 14.1172 2.1444 14.1172 Z" fill="#0868ac" stroke="none"/></g><g transform="translate(209.0601 81.0285)"><path d="M 5.2296 2.4431 C 3.9691 2.4431 3.3169 3.1425 3.0595 4.3888 C 3.0595 4.3888 6.6514 4.0648 6.6514 4.0648 C 6.8136 3.2168 6.6514 2.4431 5.2295 2.4431 Z M 2.7103 6.2334 C 2.5472 7.4816 2.9908 7.9048 4.4822 7.9048 L 8.2372 7.9048 C 8.2372 7.9048 7.8639 9.8008 7.8639 9.8008 C 7.8639 9.8008 5.6012 10.4735 3.9219 10.4735 C -0.2528 10.4735 -0.2983 7.956 0.238 5.2616 C 0.7751 2.6167 1.731 0 5.765 0 C 9.6599 0 9.8461 2.5175 8.891 6.2334 L 2.7102 6.2334 Z" fill="#0868ac" stroke="none"/></g><g transform="translate(218.8561 81.0758)"><path d="M 8.9327 2.5191 C 8.9327 2.5191 6.204 2.544 5.4583 2.544 C 3.8717 2.544 3.7087 3.0663 3.5927 3.6151 C 3.5927 3.6151 3.4984 4.1143 3.4984 4.1143 C 3.4984 4.1143 8.5362 4.5145 8.5362 4.5145 C 8.5362 4.5145 8.5594 6.2352 8.3492 7.2072 C 8.0463 8.8288 6.4837 10.4735 3.6623 10.4735 C 2.262 10.4735 0 9.9017 0 9.9017 C 0 9.9017 0.3964 7.9313 0.3964 7.9313 L 3.8717 7.9313 C 5.4111 7.9313 5.6214 7.4816 5.7156 7.0337 C 5.7156 7.0337 5.8315 6.3857 5.8315 6.3857 C 5.8315 6.3857 0.8872 5.9856 0.8872 5.9856 C 0.8872 5.9856 0.701 4.6631 0.9567 3.3425 C 1.3307 1.5455 2.8685 0 5.6908 0 C 7.0903 0 9.3522 0.5471 9.3522 0.5471 C 9.3522 0.5471 8.9327 2.5193 8.9327 2.5193 Z" fill="#0868ac" stroke="none"/></g><g transform="translate(228.2338 81.0758)"><path d="M 8.932 2.5191 C 8.932 2.5191 6.2041 2.544 5.4575 2.544 C 3.8718 2.544 3.7088 3.0663 3.5921 3.6151 C 3.5921 3.6151 3.4976 4.1143 3.4976 4.1143 C 3.4976 4.1143 8.5364 4.5145 8.5364 4.5145 C 8.5364 4.5145 8.5595 6.2352 8.3493 7.2072 C 8.0463 8.8288 6.4837 10.4735 3.6614 10.4735 C 2.2627 10.4735 0 9.9017 0 9.9017 C 0 9.9017 0.3964 7.9313 0.3964 7.9313 L 3.8717 7.9313 C 5.4103 7.9313 5.6204 7.4816 5.7149 7.0337 C 5.7149 7.0337 5.8307 6.3857 5.8307 6.3857 C 5.8307 6.3857 0.8863 5.9856 0.8863 5.9856 C 0.8863 5.9856 0.7001 4.6631 0.9558 3.3425 C 1.33 1.5455 2.8676 0 5.6908 0 C 7.0895 0 9.3515 0.5471 9.3515 0.5471 C 9.3515 0.5471 8.9318 2.5193 8.9318 2.5193 Z" fill="#0868ac" stroke="none"/></g><g transform="translate(237.4032 88.5102)"><path d="M 2.6981 4.4896 L 0.8334 4.4896 C 0.8334 4.4896 0.9029 2.9919 0.9029 2.9919 C 0.2259 2.9441 -0.1234 2.4201 0.0397 1.5455 C 0.2963 0.2991 1.0196 0 1.9755 0 C 2.9083 0 3.5365 0.2992 3.2816 1.5455 C 3.2816 1.5455 2.6981 4.4897 2.6981 4.4897 Z" fill="#0868ac" stroke="none"/></g><g transform="translate(247.5521 77.261)"><path d="M 5.0245 6.4354 C 3.6258 6.4354 3.1366 7.3329 2.8097 8.9794 C 2.4828 10.6258 2.5762 11.5977 3.975 11.5977 L 5.9109 11.5977 C 5.9109 11.5977 6.9843 6.4354 6.9843 6.4354 L 5.0245 6.4354 Z M 8.2199 12.7945 C 8.2199 12.7945 7.9626 14.1169 7.9626 14.1169 C 7.9626 14.1169 6.0051 14.0922 6.0051 14.0922 C 6.0051 14.0922 5.7246 13.4443 5.7246 13.4443 C 5.7246 13.4443 3.9981 14.2409 2.8337 14.2409 C -0.1525 14.2409 -0.2924 11.6226 0.2439 8.9793 C 0.7803 6.2848 1.9464 3.7408 4.9085 3.7408 C 5.982 3.7408 7.427 4.3144 7.427 4.3144 C 7.427 4.3144 8.6164 0 8.6164 0 L 10.7624 0 C 10.7624 0 8.22 12.7945 8.22 12.7945 Z" fill="#0868ac" stroke="none"/></g><g transform="translate(258.0771 81.076)"><path d="M 5.4153 2.5189 C 3.597 2.5189 3.0127 3.6147 2.6865 5.2116 C 2.3837 6.8333 2.5244 7.9309 4.3186 7.9309 C 6.185 7.9309 6.7453 6.8581 7.0705 5.2116 C 7.3982 3.6643 7.3039 2.5189 5.4153 2.5189 Z M 3.8304 10.4505 C -0.0182 10.4505 -0.3219 7.8816 0.1913 5.212 C 0.7284 2.544 2.0808 0 5.9292 0 C 9.7529 0 10.1039 2.544 9.566 5.212 C 9.0304 7.9313 7.6774 10.4505 3.8304 10.4505 Z" fill="#0868ac" stroke="none"/></g><g transform="translate(273.4758 81.0492)"><path d="M 10.262 10.3264 C 10.262 10.3264 10.6825 6.3855 10.6825 6.3855 C 10.6825 6.3855 10.8918 5.2631 10.8918 5.2631 C 11.1956 3.7672 11.3818 2.6694 9.9119 2.6694 L 8.7698 2.6694 C 8.8169 3.4432 8.6762 4.3159 8.49 5.2383 C 8.49 5.2383 7.4877 10.3264 7.4877 10.3264 L 5.3184 10.3264 C 5.3184 10.3264 5.7381 6.3855 5.7381 6.3855 C 5.7381 6.3855 5.9474 5.2631 5.9474 5.2631 C 6.2512 3.7672 6.4366 2.6694 4.9691 2.6694 L 4.0356 2.6694 C 4.0356 2.6694 2.4962 10.3263 2.4962 10.3263 L 0 10.3263 C 0 10.3263 2.0294 0.1257 2.0294 0.1257 L 3.9884 0.1257 C 3.9884 0.1257 4.2913 0.7489 4.2913 0.7489 C 4.2913 0.7489 5.6214 0 6.694 0 C 7.5101 0 8.1167 0.4001 8.3269 0.8976 C 8.7928 0.6232 10.1229 0 11.0797 0 C 14.0624 0 13.9705 2.5937 13.4335 5.2386 C 13.4335 5.2386 12.4311 10.3266 12.4311 10.3266 L 10.2619 10.3266 Z" fill="#0868ac" stroke="none"/></g><g transform="translate(288.2345 81.076)"><path d="M 5.4156 2.5189 C 3.5956 2.5189 3.0129 3.6147 2.6868 5.2116 C 2.3839 6.8333 2.5246 7.9309 4.3188 7.9309 C 6.1844 7.9309 6.7455 6.8581 7.0716 5.2116 C 7.3978 3.6643 7.3042 2.5189 5.4156 2.5189 Z M 3.8298 10.4505 C -0.0196 10.4505 -0.3217 7.8816 0.1915 5.212 C 0.7277 2.544 2.0801 0 5.9286 0 C 9.754 0 10.1033 2.544 9.5662 5.212 C 9.0306 7.9313 7.6775 10.4505 3.8298 10.4505 Z" fill="#0868ac" stroke="none"/></g><g transform="translate(298.5207 81.0786)"><path d="M 5.7604 4.5396 C 6.0865 2.9426 5.9938 2.6434 5.2248 2.6434 L 4.0579 2.6434 C 4.0579 2.6434 3.3114 6.386 3.3114 6.386 C 3.3114 6.386 2.1684 10.3003 2.1684 10.3003 L 0 10.3003 C 0 10.3003 1.772 1.4216 1.772 1.4216 C 1.772 1.4216 2.0293 0.1239 2.0293 0.1239 L 4.0116 0.1239 C 4.0116 0.1239 4.2673 0.7223 4.2673 0.7223 C 4.2673 0.7223 5.4103 0 6.5309 0 C 8.9087 0 8.7217 1.9191 8.2086 4.5392 L 5.7604 4.5392 Z" fill="#0868ac" stroke="none"/></g><g transform="translate(307.4059 81.0285)"><path d="M 5.2284 2.4431 C 3.9704 2.4431 3.3166 3.1425 3.0608 4.3888 C 3.0608 4.3888 6.6503 4.0648 6.6503 4.0648 C 6.815 3.2168 6.6503 2.4431 5.2284 2.4431 Z M 2.7099 6.2334 C 2.5477 7.4816 2.9896 7.9048 4.4819 7.9048 L 8.2369 7.9048 C 8.2369 7.9048 7.8644 9.8008 7.8644 9.8008 C 7.8644 9.8008 5.6017 10.4735 3.9232 10.4735 C -0.2514 10.4735 -0.2978 7.956 0.2369 5.2616 C 0.774 2.6167 1.7308 0 5.7648 0 C 9.6588 0 9.8466 2.5175 8.8899 6.2334 L 2.7099 6.2334 Z" fill="#0868ac" stroke="none"/></g><g transform="translate(317.0029 88.4598)"><path d="M 1.3874 3.0681 C 0.4074 3.0681 -0.1975 2.769 0.059 1.5473 C 0.2907 0.2975 1.0141 0 1.9949 0 C 2.9035 0 3.5326 0.2974 3.3008 1.5473 C 3.0426 2.7441 2.2978 3.0681 1.3874 3.0681 Z" fill="#0868ac" stroke="none"/></g></g></g></svg>